<svg width="13" height="15" viewBox="0 0 13 15" xmlns="http://www.w3.org/2000/svg"><title>инвалидам-колясочникам copy_легенда</title><path d="M11.999 13.62a.37.37 0 0 1-.37.367h-1.163a.35.35 0 0 1-.142-.023.372.372 0 0 1-.228-.253L8.94 9.579l-3.466-.01a.363.363 0 0 1-.249-.091.368.368 0 0 1-.124-.237l-.506-4.166a.369.369 0 0 1 .38-.42h.09c.912 0 1.02.021 1.634.55l.066.057a.33.33 0 0 1 .009.008l2.475 2.273h.58a.37.37 0 0 1 .37.368.37.37 0 0 1-.37.368h-.747a.369.369 0 0 1-.218-.087V8.19h-.002a.357.357 0 0 1-.01-.01L6.275 5.814l-.063-.054c-.244-.21-.346-.296-.448-.33-.08-.025-.2-.034-.384-.037L5.8 8.834l3.425.01a.37.37 0 0 1 .356.27l1.157 4.138h.891a.37.37 0 0 1 .37.368zm-3.594-2.15a.372.372 0 0 0-.505.137 3.292 3.292 0 0 1-2.85 1.645c-1.808 0-3.279-1.46-3.279-3.253 0-1.334.843-2.554 2.097-3.035a.367.367 0 0 0 .212-.476.372.372 0 0 0-.48-.21 4.008 4.008 0 0 0-1.849 1.44A3.944 3.944 0 0 0 1.03 10c0 2.2 1.803 3.989 4.02 3.989 1.44 0 2.78-.773 3.494-2.017a.366.366 0 0 0-.139-.502zm-4.99-8.936C3.416 1.688 4.11 1 4.963 1c.852 0 1.546.688 1.546 1.534 0 .846-.694 1.534-1.546 1.534a1.542 1.542 0 0 1-1.546-1.534zm.742 0c0 .44.361.798.805.798a.802.802 0 0 0 .804-.798c0-.44-.36-.798-.804-.798a.802.802 0 0 0-.805.798z" fill="#717171" fill-rule="nonzero" stroke="#717171" stroke-width=".3"/></svg>
