<?xml version="1.0" encoding="UTF-8"?><svg width="17px" height="17px" viewBox="0 0 17 17" version="1.1" xmlns="http://www.w3.org/2000/svg" xmlns:xlink="http://www.w3.org/1999/xlink"><title>автобус</title><desc>Created with Sketch.</desc><g id="Page-1" stroke="none" stroke-width="1" fill="none" fill-rule="evenodd"><g id="расписание" transform="translate(-515.000000, -26.000000)"><g id="автобус" transform="translate(515.000000, 26.000000)"><g id="коммерческие-линии-copy" fill="#E47226"><path d="M2.16394545,0.241374627 L14.9672894,0.241374627 C16.0622955,0.241374627 16.9581697,1.07683582 16.9581697,2.09800299 L16.9581697,14.9066149 C16.9581697,15.9278075 16.0622955,16.7632687 14.9672894,16.7632687 L2.16394545,16.7632687 C1.06893939,16.7632687 0.173065152,15.9278075 0.173065152,14.9066149 L0.173065152,2.09800299 C0.173065152,1.07683582 1.06893939,0.241374627 2.16394545,0.241374627 Z" id="path262"></path></g><g id="icon-3" transform="translate(3.500000, 3.000000)" fill="#FFFFFF" fill-rule="nonzero"><path d="M9.49308627,2.68972307 C9.40387141,1.81165698 9.26175286,1.12799042 9.03691217,0.859268791 C8.10989524,-0.245637083 1.61620774,-0.326495663 0.878922671,0.859268791 C0.698569182,1.14977866 0.572081268,1.83102431 0.487194893,2.69117562 C0.21329806,2.72361588 0,2.95578169 0,3.23999718 L0,4.31560997 C0,4.55479643 0.150535046,4.7564587 0.360706979,4.83513846 C0.310929416,6.52929519 0.351328597,8.29680566 0.425874706,9.17584011 C0.425874706,9.85442274 0.8786822,9.74185017 0.8786822,9.74185017 L1.30311408,9.74185017 L1.30311408,10.4744192 C1.30311408,10.7649291 1.6005771,11 1.96705539,11 C2.33401462,11 2.63147765,10.7649291 2.63147765,10.4744192 L2.63147765,9.74185017 L7.56931571,9.74185017 L7.56931571,10.4744192 C7.56931571,10.7649291 7.86653826,11 8.2334975,11 C8.59997579,11 8.89743881,10.7649291 8.89743881,10.4744192 L8.89743881,9.74185017 L9.03691217,9.74185017 C9.03691217,9.74185017 9.56979662,9.815446 9.60394354,9.49588515 C9.60394354,8.61927161 9.658771,6.67648685 9.6135624,4.8426433 C9.83696025,4.77219465 9.99999981,4.56496428 9.99999981,4.31560997 L9.99999981,3.23999718 C10.0002403,2.94900313 9.77660195,2.71296386 9.49308627,2.68972307 Z M2.46483102,1.0168704 L7.45100382,1.0168704 L7.45100382,1.77631162 L2.46483102,1.77631162 L2.46483102,1.0168704 Z M2.53601053,8.87685703 C2.14452322,8.87685703 1.82734155,8.55729617 1.82734155,8.16317112 C1.82734155,7.76928815 2.14452322,7.44996938 2.53601053,7.44996938 C2.92749784,7.44996938 3.24491998,7.76928815 3.24491998,8.16317112 C3.24491998,8.55729617 2.92773831,8.87685703 2.53601053,8.87685703 Z M7.42431151,8.87685703 C7.03306467,8.87685703 6.71516159,8.55729617 6.71516159,8.16317112 C6.71516159,7.76928815 7.0328242,7.44996938 7.42431151,7.44996938 C7.81579881,7.44996938 8.13298048,7.76928815 8.13298048,8.16317112 C8.13322096,8.55729617 7.81579881,8.87685703 7.42431151,8.87685703 Z M8.32535754,5.75387592 L1.5904773,5.75387592 L1.5904773,2.19755093 L8.32535754,2.19755093 L8.32535754,5.75387592 Z" id="Shape"></path></g></g></g></g></svg> 
