<svg width="17" height="17" viewBox="0 0 17 17" xmlns="http://www.w3.org/2000/svg"><title>городские линии</title><g fill="none" fill-rule="evenodd"><path d="M2.004.11H14.85c1.099 0 1.997.852 1.997 1.892v13.047c0 1.04-.898 1.891-1.997 1.891H2.004c-1.099 0-1.998-.85-1.998-1.891V2.002C.006.962.905.11 2.004.11z" fill="#EC1D24"/><g fill="#FEFEFE"><path d="M13.583 12.84c-1.258-.463-1.627-1.253-2.025-2.475-.399-1.223-1.656-1.235-3.039-1.832.154.067 2.438.095 3.46 1.17 1.023 1.077 1.754 1.681 1.604 3.137"/><path d="M14.757 10.85c-1.34-.005-1.957-.621-2.75-1.634-.793-1.012-1.978-.595-3.482-.683.167.01 2.324-.743 3.653-.082 1.328.661 2.222.98 2.58 2.399"/><path d="M15.18 8.579c-1.262.453-2.052.085-3.144-.596-1.091-.68-2.062.118-3.506.548.16-.047 1.93-1.492 3.404-1.325 1.476.167 2.425.161 3.246 1.373"/><path d="M14.8 6.3c-1.031.857-1.9.782-3.158.515-1.259-.267-1.898.815-3.108 1.713.135-.099 1.302-2.062 2.746-2.409 1.443-.347 2.333-.677 3.52.18"/><path d="M13.662 4.289c-.675 1.158-1.517 1.383-2.791 1.563-1.274.18-1.505 1.414-2.334 2.672.093-.14.518-2.383 1.756-3.202 1.238-.82 1.96-1.434 3.369-1.033"/><path d="M11.905 2.788c-.238 1.318-.952 1.818-2.088 2.422-1.136.604-.93 1.843-1.278 3.308.04-.162-.33-2.416.553-3.608.883-1.193 1.352-2.018 2.813-2.122"/><path d="M9.74 1.977c.227 1.32-.273 2.034-1.133 2.99-.86.956-.243 2.05-.069 3.546-.018-.166-1.136-2.158-.715-3.58.421-1.423.58-2.358 1.916-2.956"/><path d="M7.428 1.956c.666 1.163.44 2.004-.041 3.197-.481 1.192.474 2.01 1.149 3.355-.075-.15-1.806-1.64-1.898-3.12-.09-1.48-.262-2.413.79-3.432"/><path d="M5.248 2.726c1.024.865 1.1 1.733 1.056 3.018-.044 1.285 1.133 1.726 2.228 2.76-.121-.115-2.258-.923-2.851-2.283-.593-1.36-1.072-2.178-.433-3.495"/><path d="M3.463 4.195c1.259.463 1.627 1.252 2.025 2.475.399 1.222 1.656 1.235 3.039 1.832-.153-.067-2.438-.096-3.46-1.171-1.023-1.076-1.754-1.68-1.604-3.136"/><path d="M2.289 6.185c1.34.005 1.957.62 2.75 1.633.793 1.013 1.978.595 3.482.684-.167-.011-2.323.743-3.652.081-1.33-.66-2.223-.98-2.58-2.398"/><path d="M1.867 8.456c1.261-.454 2.051-.086 3.143.595 1.091.68 2.062-.117 3.506-.548-.16.047-1.93 1.493-3.404 1.325-1.475-.167-2.424-.16-3.245-1.372"/><path d="M2.247 10.735c1.03-.858 1.899-.782 3.157-.515 1.26.266 1.899-.815 3.108-1.714-.135.1-1.302 2.062-2.746 2.41-1.443.346-2.333.676-3.52-.181"/><path d="M3.384 12.746c.675-1.158 1.517-1.384 2.791-1.563C7.45 11.003 7.68 9.768 8.51 8.51c-.093.14-.518 2.383-1.756 3.202-1.237.82-1.96 1.433-3.369 1.033"/><path d="M5.142 14.247c.237-1.319.951-1.818 2.087-2.423 1.136-.604.93-1.843 1.278-3.308-.04.163.33 2.416-.553 3.609s-1.352 2.017-2.812 2.122"/><path d="M7.307 15.057c-.228-1.32.272-2.034 1.132-2.99.86-.956.243-2.05.069-3.545.019.166 1.136 2.157.715 3.58-.421 1.422-.58 2.357-1.916 2.955"/><path d="M9.619 15.078c-.667-1.162-.441-2.004.04-3.196.482-1.193-.473-2.01-1.149-3.355.075.15 1.807 1.639 1.898 3.12.091 1.48.262 2.413-.79 3.431"/><path d="M11.798 14.308c-1.024-.865-1.1-1.732-1.056-3.017.044-1.285-1.132-1.727-2.228-2.76.121.115 2.259.923 2.851 2.283.593 1.36 1.073 2.178.433 3.494"/></g></g></svg>
