<svg width="20" height="10" viewBox="0 0 20 10" xmlns="http://www.w3.org/2000/svg"><title>фирменный поезд_легенда</title><path d="M.006 4.88c0 2.33 1.779 3.87 4.388 3.87v1.17h1.324V8.75c2.609 0 4.388-1.54 4.388-3.87 0-2.29-1.792-3.81-4.388-3.81V.01H4.394v1.06C1.785 1.07.006 2.59.006 4.88zm5.712 2.78v-5.5c1.82 0 3.037 1.04 3.037 2.72a2.734 2.734 0 0 1-3.037 2.78zM1.357 4.88c0-1.68 1.217-2.72 3.037-2.72v5.5a2.734 2.734 0 0 1-3.032-2.78h-.005zm10.5 4.89h1.324V1.71h4.79v8.06h1.324V.59h-7.433v9.18h-.005z" fill="#717171" fill-rule="evenodd"/></svg>
