<svg width="17" height="17" viewBox="0 0 17 17" xmlns="http://www.w3.org/2000/svg"><title>межрегиональные линии бизнес-класса</title><g fill="none" fill-rule="evenodd"><path d="M2.166.007h12.733c1.09 0 1.98.855 1.98 1.901v13.12c0 1.045-.89 1.9-1.98 1.9H2.166c-1.09 0-1.98-.855-1.98-1.9V1.907c0-1.046.89-1.901 1.98-1.901" fill="#0E9543"/><path d="M6.663 7.372c-.592-.505.309-2.874-.12-3.367l-.053-.06c-.333-.382.867-1.586 1.438-1.406.699.22 1.507-.25 1.507.403 0 .916 1.458 3.625.877 4.467-.528.766-.694 1.53-1.175 2.483-.008.002-.19.682-.559.712-.406.033-1.592-2.955-1.915-3.232M10.235 8.04c1.175-1.77 2.473-4.263 4.678-3.002.294.168.92.643 1.016 1.219-.227 0-.772-.09-1.17-.09-.693 0-1.064.535-1.47 1.092-.342.47-1.335.536-1.89.782-.935.414-2.24 1.981-2.126 1.824.182-.248.677-1.398.962-1.826M6.798 8.07c-1.176-1.768-2.473-4.262-4.679-3-.293.168-.92.643-1.016 1.219.227 0 .772-.09 1.17-.09.693 0 1.065.535 1.47 1.092.342.47 1.336.536 1.89.781.936.415 2.241 1.982 2.126 1.825-.182-.249-.677-1.398-.961-1.826" fill="#FEFEFE"/><path d="M8.773 10.717c.29-.329 1.073-1.346 1.719-1.844 1.677-1.292 2.948-1.215 4.33-.375.262.066.884 1.048-.04 1.048-.725 0-.773.37-1.452.308-1.035-.095-1.603-.004-2.402.393-1.088.557-1.533.818-2.155.47M8.26 10.749c-.291-.329-1.073-1.346-1.72-1.844-1.677-1.292-2.948-1.216-4.33-.376-.261.066-.884 1.049.04 1.049.726 0 .773.37 1.453.308 1.035-.095 1.602-.004 2.402.393 1.088.557 1.533.818 2.155.47M7.348 11.415c-.502.472.806 2.464 1.25 2.523 1.023-.317 1.772-2.374 1.227-2.622-.758-.343-1.763-.573-2.477.099z" fill="#FEFEFE"/><path d="M7.348 11.415c-.502.472.806 2.464 1.25 2.523 1.023-.317 1.772-2.374 1.227-2.622-.758-.343-1.763-.573-2.477.099z" stroke="#FEFEFE" stroke-width=".5"/><path d="M7.852 7.156c.04.713.051 1.426.229 2.117.108.42.32.803.493 1.2-.205-.384-.435-.757-.59-1.164-.181-.47-.315-.958-.445-1.446-.052.206-.112.335-.162.328-.087-.013-.112-.422-.057-.914.056-.493.17-.882.257-.87.062.01.093.221.085.52a.25.25 0 0 1 .19.23M8.704 7.817c-.038.36-.067.72-.082 1.083-.022.536-.017 1.073-.02 1.61l-.123-1.606a28.289 28.289 0 0 0-.204-1.676.25.25 0 0 1 .139-.205 6.934 6.934 0 0 1-.031-.14c-.114-.547-.138-1.01-.054-1.033.085-.023.247.402.36.95.028.13.05.254.067.37.009.028.013.058.012.09.04.325.035.557-.025.573-.012.003-.025-.003-.04-.016M9.456 7.923a24.132 24.132 0 0 1-.382 1.54c-.077.265-.186.52-.293.774-.029.069-.065.135-.104.198a.154.154 0 0 1-.034.037c-.004.004-.012.002-.015-.002-.003-.003-.004-.007-.005-.01.003.004.005.01.01.012.009.001.02-.011.022-.015a.548.548 0 0 0 .056-.107c.06-.153.116-.308.157-.467.124-.492.26-.987.285-1.494l-.07-.974a.25.25 0 0 1 .283-.264c-.019-.408.012-.72.076-.726.072-.007.16.382.195.868.036.487.007.887-.066.894-.037.004-.078-.098-.115-.264" fill="#0E9543"/></g></svg> 
