<svg width="17" height="17" viewBox="0 0 17 17" xmlns="http://www.w3.org/2000/svg"><title>межрегиональные линии эконом-класса</title><g fill="none" fill-rule="evenodd"><path d="M2.167.128h12.815c1.096 0 1.992.85 1.992 1.887v13.014c0 1.038-.896 1.887-1.992 1.887H2.167c-1.096 0-1.993-.85-1.993-1.887V2.015C.174.977 1.071.128 2.167.128" fill="#0E9543"/><g fill="#FEFEFE"><path d="M7.366 2.302c-.12.684 1.485 1.674.837 1.976-.506.236 1.846 2.015 1.605 3.525-.336 2.106-1.788 3.033-1.697 4.288l.4.902c.055-.724.488-1.503.76-1.957C15.587 2.132 7.615.896 7.367 2.302"/><path d="M7.233 3.214c.398.105.57.577.41.696-.125.093-.27.302-.252.415.04.26 1.74 1.8.738 3.088-.365.468-1.167.376-1.519 1.162-.314.703-.078 1.573 1.458 3.918.662 1.206.879 1.722.758 1.774-1.088-.716-3.729-4.319-4.146-7.229-.312-2.177 1.315-4.151 2.553-3.824M11.805 10.82c.097.029-.073.53.017.494.226-.535 1.509-.356 1.571-.01.033.184.056-.051.286.066.027.077.38.23.64.455.218.19.484.617.368.911.132.367.503.861.503.878.002.103-.338.263-.69.335-.177.036-.206.192-.206.192-.95.383-1.576-.42-2.031-1.087-1.35-1.978-3.349.7-3.31.414.16-1.223 2.894-2.692 2.852-2.648M1.596 12.824c.378.112.685 1 .798 1.136.404.489 1.452.863 2.743 1.064.304.048.31-1.624 2.133-1.097.042.012.986.533 1.48.814.092.053.26.145.058-.035l-.02-.017c-2.133-1.937-2.08-2.1-4.03-2.663-.165-.048-.6-.035-.8-.047-.78-.048-.983-.037-1.158.194-.276-.175-.726.232-1.204.651"/><path d="M7.87 8.347c-1.426.297-.293 2.767.005 3.452-.56-1.17-1.563-2.912-.15-3.77.097-.057.203-.069.282.082.044.086-.021.221-.137.236"/><path d="M9.018 6.743c.665 1.38-.77 1.639-1.095 2.987-.089.37-.037.728.207 1.481-.176-.473-.394-.761-.357-1.406.06-1.066.916-1.364 1.1-2.213.098-.456-.278-.687-.218-1.02-.018-.57 1.41-.197.872 1.503-.063.201-.84 1.27-.742 1.121l.266-.4c.537-.813.54-1.914-.033-2.053"/></g></g></svg> 
