<svg width="17" height="17" viewBox="0 0 17 17" xmlns="http://www.w3.org/2000/svg"><title>международные линии</title><g fill="none" fill-rule="evenodd"><path d="M2.062.183h12.89c1.102 0 2.004.841 2.004 1.87v12.903c0 1.029-.902 1.87-2.004 1.87H2.062c-1.102 0-2.004-.841-2.004-1.87V2.053c0-1.029.902-1.87 2.004-1.87" fill="#F6D401"/><path d="M7.518 8.24c-1.098.616-1.965 1.799-.937 3.812.639 1.251 1.434 1.81 2.16 1.88.221.022.436-.003.638-.068 1.438-.462 2.303-2.865.065-5.324-.028-.03 1.434-.025 1.641 2.79.327.936 1.797.825 2.242.412.728-.15.691-.723 1.302-.975.385-.16 1.221.019 1.33-.305.154-.453.096-1.434-.576-2.316-.371-.317-.41-1.466-1.596-2.083-1.034-.477-2.386 0-3.705.115C11.4 3.8 7.46 2.106 7.118 2.29c0 .57-1.506.82-2.048 1.844-.757 1.43.673 2.746 1.749 3.266-1.282-.123-2.301-.867-3.977-.203-1.562.72-3.17 3.58-.866 4.53.61.252.65.48 1.314.741.024.062.825.424 1.213.38 1.673-.18.965-1.9 1.224-2.476.126-.794.302-1.449 1.64-2.303a.272.272 0 0 1 .15.172" fill="#FEFEFE"/><path d="M7.191 5.817c-.435.412-.51.944-.303 1.327.162.301.316.519.409.645.22.303.403.39.26.556-.162.188-.872.895-.89 1.87-.07 3.534 5.979 2.673 2.6-1.781 2.64.083 3.258-5.617.049-2.673-.835.916-.229 2.318-.994 2.304-.448-.008-1.619-1.054-.216-1.443 1.297-.36.574-1.194-.04-1.144-.351.03-.667.142-.875.34" fill="#F6D401"/><path d="M7.226 5.897v.001a1.26 1.26 0 0 0-.272.353c-.165.312-.163.646-.022.906a5.242 5.242 0 0 0 .405.635c.059.08.116.145.164.201.148.17.226.26.094.412l-.049.054c-.218.241-.813.898-.83 1.772-.02 1.02.486 1.662 1.121 1.948.43.193.92.224 1.344.099.423-.125.78-.405.953-.834.26-.649.097-1.64-.907-2.953l-.061-.081.102.002c.926.022 1.737-.779 2.042-1.59.202-.532.319-1.744-.488-1.822-.326-.032-.81.198-1.469.839-.403.44-.462 1-.51 1.45-.051.492-.09.862-.522.854-.199-.003-.527-.192-.735-.441a.879.879 0 0 1-.18-.326.47.47 0 0 1 .034-.35c.086-.164.286-.311.652-.412.385-.106.583-.252.655-.4a.307.307 0 0 0 .023-.212.453.453 0 0 0-.114-.198.756.756 0 0 0-.585-.23H8.07a2.048 2.048 0 0 0-.278.043 1.214 1.214 0 0 0-.566.28zm-.07-.07c.157-.148.37-.25.613-.305a1.945 1.945 0 0 1 .292-.045h.001c.247-.02.51.092.668.26a.55.55 0 0 1 .137.243.4.4 0 0 1-.03.276c-.083.172-.301.337-.718.452-.336.093-.516.221-.59.362a.377.377 0 0 0-.026.281c.027.1.085.198.161.29.19.228.485.402.659.405.34.006.375-.326.421-.767.05-.465.11-1.043.535-1.506l.002-.002c.684-.665.81-.815 1.461-.905.497-.055.88.328.97.712.116.398.09.795-.13 1.23-.307.816-1.292 1.67-2.216 1.701.975 1.308 1.128 2.307.861 2.971-.184.459-.566.758-1.017.891-.447.133-.962.1-1.414-.103-.668-.3-1.2-.973-1.18-2.039.018-.91.63-1.586.856-1.835l.047-.053c.076-.088.017-.156-.095-.285a3.183 3.183 0 0 1-.168-.206 5.879 5.879 0 0 1-.412-.647c-.156-.288-.16-.655.02-.997a1.538 1.538 0 0 1 .292-.379z" fill="#FEFEFE"/><path d="M8.858 11.98c1.171-.24 1.399-2.157.324-3.186 1.176.916 1.214 2.869-.216 3.43-.206.088-.33-.18-.108-.244" fill="#FEFEFE"/><path d="M8.657 11.544c.963-.207 1.133-1.817.24-2.703.936.777 1.09 2.495-.101 2.925-.261.101-.329-.167-.139-.222" fill="#FEFEFE"/><path d="M8.534 11.064c.807-.173.73-1.402.026-2.17.782.648.98 1.99.046 2.416-.15.063-.232-.2-.072-.246M9.601 8.018a2 2 0 0 1-.084.014l.084-.014zM10.353 5.466c.613.678.11 2.172-.923 2.6.79-.482 1.471-1.684.689-2.365a.185.185 0 0 1 .01-.245.15.15 0 0 1 .224.01" fill="#FEFEFE"/><path d="M9.861 5.875c.523.577.109 1.81-.773 2.176.675-.411 1.241-1.395.574-1.976a.158.158 0 0 1 .008-.21.128.128 0 0 1 .191.01" fill="#FEFEFE"/><path d="M10.898 5.16c.626.693.014 2.367-1.043 2.805.809-.493 1.603-1.867.803-2.564a.19.19 0 0 1 .01-.251.153.153 0 0 1 .23.01M9.324 6.33c.553.041.434.78.122 1.145a2.551 2.551 0 0 1-.662.546c1.146-.925.77-1.482.576-1.445-.062.011-.12-.035-.13-.103-.01-.069.032-.133.094-.143M8.215 6.293c-.821.148-1.309.664-.605 1.584-.783-1-.45-1.604.516-1.779.262-.047.274.177.089.195" fill="#FEFEFE"/><path d="M8.167 5.94c-.54.124-1.132.229-1.12.989.003.242.175.518.271.63-.11-.098-.181-.244-.239-.386-.342-.848.34-1.37.91-1.439.327-.114.34.146.178.207M7.892 14.851c-.685-.897-2.022-2.636-1.886-4.13.01-.105.038-.29.081-.375-.04.087-.066.272-.072.377-.087 1.47 1.459 3.255 2.281 3.863.08.075.128.267.045.334-.196.16-.37.006-.45-.069z" fill="#FEFEFE"/><path d="M7.892 14.851c-.685-.897-2.022-2.636-1.886-4.13.01-.105.038-.29.081-.375-.04.087-.066.272-.072.377-.087 1.47 1.459 3.255 2.281 3.863.08.075.128.267.045.334-.196.16-.37.006-.45-.069z" stroke="#FEFEFE" stroke-width=".5"/><path d="M8.473 8.462c.11 0 .199.045.199.101 0 .056-.089.102-.199.102-.11 0-.198-.046-.198-.102 0-.056.089-.101.198-.101M8.167 8.25c.104 0 .189.044.189.098 0 .053-.085.096-.189.096s-.188-.043-.188-.096c0-.054.084-.097.188-.097M9 8.635c.105 0 .19.043.19.097 0 .053-.085.096-.19.096-.103 0-.187-.043-.187-.096 0-.054.084-.097.188-.097M8.755 8.125c.088 0 .16.036.16.082 0 .045-.072.082-.16.082-.088 0-.16-.037-.16-.082 0-.046.072-.082.16-.082M8.38 10.902c-.58-.677-.644-1.104-.327-1.81-.255.787-.082 1.163.52 1.59.138.11.01.374-.193.22" fill="#FEFEFE"/><path d="M8.056 11.398c-.575-.692-.844-1.596-.235-2.46-.37.708-.36 1.5.498 2.258.151.135-.071.468-.263.202" fill="#FEFEFE"/><path d="M7.716 11.884c-.906-.97-.915-2.246-.057-3.2-.445.629-.926 1.846.331 2.985.144.133.014.408-.274.215" fill="#FEFEFE"/></g></svg> 
