<svg width="17" height="17" viewBox="0 0 17 17" xmlns="http://www.w3.org/2000/svg"><title>региональные линии эконом-класса</title><g fill="none" fill-rule="evenodd"><path d="M2.072.18h12.79c1.095 0 1.99.848 1.99 1.883v12.99c0 1.035-.895 1.883-1.99 1.883H2.073c-1.094 0-1.989-.848-1.989-1.883V2.063C.083 1.028.978.18 2.073.18" fill="#0A45BB"/><g fill="#FEFEFE"><path d="M3.71 3.874c1.015-.73 2.364-.381 3.02-.192-.391.256-.832 1.215-.89 2.118-.08 1.233.393 3.82 1.38 4.737-.083-.023-3.19-1.033-4.117-3.893-.41-1.289-.094-2.246.607-2.77M6.753 3.658c.475-.618.969-1.022 1.84-1.416 2.216-.753 4.314.928 2.125 3.876-2.662 3.583-3.221 4.299-3.443 4.42.28-.802 1.793-4.649-.522-6.88"/><path d="M13.708 6.152c2.706 2.198-3.477 4.724-6.323 4.404.802-.333 3.597-5.755 6.323-4.404M7.2 10.635c.311 2.8-2.9 4.696-3.685 2.78-.593-1.445 2.278-3.222 3.685-2.78"/><path d="M7.357 10.676c-.71 5.571 4.818 5.164 4.574 2.795-.234-2.276-4.22-2.666-4.574-2.795"/></g></g></svg>
