<svg width="17" height="17" viewBox="0 0 17 17" xmlns="http://www.w3.org/2000/svg"><title>региональные линии бизнес-класса</title><g fill="none" fill-rule="evenodd"><path d="M2.101.032h12.83c1.097 0 1.995.85 1.995 1.889v13.03c0 1.038-.898 1.888-1.995 1.888H2.1c-1.097 0-1.995-.85-1.995-1.889V1.92C.106.883 1.004.033 2.101.033" fill="#0A45BB"/><g fill="#FEFEFE"><path d="M7.172 2.924c1.034-.063.947 2.38-.508 4.873-1.456 2.494.945 3.312 1.31 5.293.364 1.982-1.987-2.227-2.488-5.066-.501-2.84.651-5.037 1.686-5.1M9.26 1.814c-1.034-.063-.948 2.38.508 4.873.793 1.36.534 2.177.076 2.96v.004c0 .311-.025.645-.066.986.465-1.09.955-2.517 1.168-3.723.5-2.84-.652-5.037-1.686-5.1"/><path d="M8.387 6.08c.696 0 1.26 1.72 1.26 3.84s-1.242 5.407-1.26 3.84c-.018-1.568-1.26-1.72-1.26-3.84s.564-3.84 1.26-3.84M12 6.818c.172.06-.355 2.002-1.177 4.335-.822 2.332-2.403 5.841-1.8 4.115.603-1.727.356-2.001 1.178-4.334.822-2.333 1.628-4.176 1.8-4.116"/></g></g></svg> 
