<svg width="16" height="9" viewBox="0 0 16 9" xmlns="http://www.w3.org/2000/svg"><title>электронная регистрация_легенда</title><path d="M-.015 7.47a4.691 4.691 0 0 0 3.269 1.3 4.294 4.294 0 0 0 4.35-4.45A4.175 4.175 0 0 0 3.29 0 4.491 4.491 0 0 0 .165 1.14l.589.89a3.854 3.854 0 0 1 2.512-.95 3.011 3.011 0 0 1 3.088 2.8H1.906v.98H6.34a3.067 3.067 0 0 1-3.088 2.83A3.864 3.864 0 0 1 .608 6.64l-.623.83zm9.32 1.15h1.19V5.49h1.922a2.55 2.55 0 0 0 2.656-2.69A2.518 2.518 0 0 0 12.417.15H9.306v8.47h-.001zm1.19-4.16V1.18h1.742a1.509 1.509 0 0 1 1.634 1.62 1.538 1.538 0 0 1-1.646 1.66h-1.73z" fill="#717171" fill-rule="evenodd"/></svg> 
